<svg width="26" height="26" viewBox="0 0 26 26" fill="none" xmlns="http://www.w3.org/2000/svg">
<path d="M0.292893 23.7953C-0.0976311 24.1859 -0.0976311 24.819 0.292893 25.2095C0.683418 25.6001 1.31658 25.6001 1.70711 25.2095L0.292893 23.7953ZM25.5023 1.00014C25.5023 0.447862 25.0546 0.000146337 24.5023 0.000144736L15.5023 0.000145537C14.95 0.000145199 14.5023 0.447861 14.5023 1.00015C14.5023 1.55243 14.95 2.00014 15.5023 2.00015L23.5023 2.00014L23.5023 10.0001C23.5023 10.5524 23.95 11.0001 24.5023 11.0001C25.0546 11.0001 25.5023 10.5524 25.5023 10.0001L25.5023 1.00014ZM1.70711 25.2095L25.2094 1.70725L23.7952 0.293038L0.292893 23.7953L1.70711 25.2095Z" fill="#F2F2F2"/>
</svg>
