<svg width="236" height="182" viewBox="0 0 236 182" fill="none" xmlns="http://www.w3.org/2000/svg">
<path d="M128.291 64.7403L156.046 78.1875L181.092 61.3614M128.291 64.7403L153.728 48.1036M128.291 64.7403L126.364 34.8458L151.208 17.4394M153.728 48.1036L151.208 17.4394M153.728 48.1036L181.092 61.3614M151.208 17.4394L178.963 30.8866L181.092 61.3614" stroke="#222A2A" stroke-width="2"/>
<path d="M-3.40454 169.453C-0.341953 157.76 2.72451 150.015 11.5425 141.859C20.5736 133.505 33.2176 131.884 44.886 129.85C75.1676 124.572 104.649 127.184 133.93 115.158C159.952 104.471 182.313 80.8042 192.057 54.7315C202.422 26.9982 208.953 -6.90629 234.599 -24.8584" stroke="#636363" stroke-linecap="round"/>
<path d="M36.4277 156.708L28.7004 105.919L67.9198 75.068L115.255 92.7503L122.983 143.539L83.1567 175.214L36.4277 156.708Z" fill="#D7E4E3"/>
<path d="M28.7004 105.919L36.4277 156.708L83.1567 175.214M28.7004 105.919L75.5383 125.141M28.7004 105.919L67.9198 75.068L115.255 92.7503M75.5383 125.141L115.255 92.7503M75.5383 125.141L83.1567 175.214M115.255 92.7503L122.983 143.539L83.1567 175.214" stroke="#222A2A" stroke-width="2"/>
</svg>
