<svg width="467" height="349" viewBox="0 0 467 349" fill="none" xmlns="http://www.w3.org/2000/svg">
<path d="M1 348C2.9378 306.66 32.3112 268.537 65.3111 245.156C102.867 218.547 173.262 215.896 217.531 209.373C249.293 204.693 281.146 200.095 312.521 193.194C346.168 185.794 384.578 177.125 414.492 159.159C435.135 146.761 447.741 118.355 456.381 97.0631C461.365 84.7814 463.882 71.9953 466.048 59" stroke="#636363" stroke-linecap="round"/>
<path d="M90.436 320.684L166.833 199.282C180.454 202.084 191.451 212.37 195.246 217.162L118.849 338.564C107.294 337.062 95.0924 326.018 90.436 320.684Z" fill="#F2F2F2"/>
<path d="M166.833 199.282L90.436 320.684C95.0924 326.018 107.294 337.062 118.849 338.564L195.246 217.162M166.833 199.282C180.454 202.084 191.451 212.37 195.246 217.162M166.833 199.282C169.873 204 179.813 214.181 195.246 217.162" stroke="#222A2A" stroke-width="2"/>
<path d="M273.005 99.4452L234.72 10.6299C241.479 4.13085 251.394 1.94839 255.506 1.66953L293.791 90.4849C288.544 96.3322 277.747 98.8948 273.005 99.4452Z" fill="#F2F2F2"/>
<path d="M234.72 10.6299L273.005 99.4452C277.747 98.8948 288.544 96.3322 293.791 90.4849L255.506 1.66953M234.72 10.6299C241.479 4.13085 251.394 1.94839 255.506 1.66953M234.72 10.6299C238.503 10.742 247.956 9.10689 255.506 1.66953" stroke="#222A2A" stroke-width="2"/>
<path d="M209.93 234.81L243.332 144.178L338.936 125.827L401.007 202.289L367.604 292.921L271.216 309.573L209.93 234.81Z" fill="#F2F2F2"/>
<path d="M209.93 234.81L243.332 144.178M209.93 234.81L271.216 309.573M209.93 234.81L267.181 171.3M209.93 234.81L284.486 273.569M243.332 144.178L338.936 125.827M243.332 144.178L267.181 171.3M338.936 125.827L401.007 202.289M338.936 125.827L267.181 171.3M338.936 125.827L367.745 208.362M401.007 202.289L367.604 292.921M401.007 202.289L367.745 208.362M367.604 292.921L271.216 309.573M367.604 292.921L367.745 208.362M367.604 292.921L284.486 273.569M271.216 309.573L284.486 273.569M267.181 171.3L367.745 208.362M267.181 171.3L284.486 273.569M367.745 208.362L284.486 273.569" stroke="#222A2A" stroke-width="2"/>
<path d="M97.4802 73.3903L106.836 134.881L163.412 157.287M97.4802 73.3903L154.188 96.6626M97.4802 73.3903L144.964 36.0379L202.274 57.4462M154.188 96.6626L202.274 57.4462M154.188 96.6626L163.412 157.287M202.274 57.4462L211.63 118.937L163.412 157.287" stroke="#222A2A" stroke-width="2"/>
</svg>
