<svg width="210" height="255" viewBox="0 0 210 255" fill="none" xmlns="http://www.w3.org/2000/svg">
<path d="M13.9436 113.502L41.4541 38.8564M13.9436 113.502L64.4198 175.078M13.9436 113.502L61.0959 61.194M13.9436 113.502L75.3487 145.424M41.4541 38.8564L120.195 23.7419M41.4541 38.8564L61.0959 61.194M120.195 23.7419L171.316 86.7171M120.195 23.7419L61.0959 61.194M120.195 23.7419L143.921 91.7193M171.316 86.7171L143.806 161.362M171.316 86.7171L143.921 91.7193M143.806 161.362L64.4198 175.078M143.806 161.362L143.921 91.7193M143.806 161.362L75.3487 145.424M64.4198 175.078L75.3487 145.424M61.0959 61.194L143.921 91.7193M61.0959 61.194L75.3487 145.424M143.921 91.7193L75.3487 145.424" stroke="#636363" stroke-width="2"/>
<path d="M94.1131 205.653L99.0538 238.127L128.932 249.959M94.1131 205.653L124.061 217.943M94.1131 205.653L119.19 185.927L149.455 197.233M124.061 217.943L149.455 197.233M124.061 217.943L128.932 249.959M149.455 197.233L154.396 229.706L128.932 249.959" stroke="#636363" stroke-width="2"/>
<path d="M180.22 124.708L168.686 138.717L174.838 155.37M180.22 124.708L186.21 141.559M180.22 124.708L197.582 127.747L204.094 144.365M186.21 141.559L204.094 144.365M186.21 141.559L174.838 155.37M204.094 144.365L192.56 158.374L174.838 155.37" stroke="#636363" stroke-width="2"/>
</svg>
