<svg width="233" height="216" viewBox="0 0 233 216" fill="none" xmlns="http://www.w3.org/2000/svg">
<path d="M-7.00366 138.156C-6.668 129.429 -6.66572 123.285 0.405991 118.099C6.40964 113.697 13.1284 115.107 20.2076 116.566C34.6144 119.536 43.6435 126.548 55.4674 134.579C62.4656 139.333 69.541 146.193 77.4408 149.399C98.5149 157.95 127.126 160.503 136.207 134.963C141.213 120.884 129.496 106.606 122.921 95.3593C115.008 81.8234 101.108 67.2825 106.824 50.1348C111.862 35.0195 127.409 29.1282 141.317 25.4786C172.422 17.3162 203.424 5.34809 232.149 -9.01465" stroke="#F2F2F2" stroke-linecap="round"/>
<path d="M163.005 112.445L124.72 23.6299C131.479 17.1309 141.394 14.9484 145.506 14.6695L183.791 103.485C178.544 109.332 167.747 111.895 163.005 112.445Z" fill="#222A2A"/>
<path d="M124.72 23.6299L163.005 112.445C167.747 111.895 178.544 109.332 183.791 103.485L145.506 14.6695M124.72 23.6299C131.479 17.1309 141.394 14.9484 145.506 14.6695M124.72 23.6299C128.503 23.742 137.956 22.1069 145.506 14.6695" stroke="#F2F2F2" stroke-width="2"/>
<path d="M73.1854 197.329L40.6029 159.597L56.8862 113.993L104.907 104.069L137.489 141.801L121.133 188.394L73.1854 197.329Z" fill="#222A2A"/>
<path d="M40.6029 159.597L73.1854 197.329L121.133 188.394M40.6029 159.597L89.0098 151.194M40.6029 159.597L56.8862 113.993L104.907 104.069M89.0098 151.194L104.907 104.069M89.0098 151.194L121.133 188.394M104.907 104.069L137.489 141.801L121.133 188.394" stroke="#F2F2F2" stroke-width="2"/>
</svg>
