<svg width="1063" height="205" viewBox="0 0 1063 205" fill="none" xmlns="http://www.w3.org/2000/svg">
<rect x="76" y="51" width="986" height="113" stroke="#222A2A" stroke-width="2"/>
<path d="M14.2945 116.358L42.4973 39.8343L123.219 24.3394L175.628 88.8995L147.425 165.423L66.041 179.484L14.2945 116.358Z" fill="#F2F2F2"/>
<path d="M14.2945 116.358L42.4973 39.8343M14.2945 116.358L66.041 179.484M14.2945 116.358L62.6334 62.734M14.2945 116.358L77.2448 149.084M42.4973 39.8343L123.219 24.3394M42.4973 39.8343L62.6334 62.734M123.219 24.3394L175.628 88.8995M123.219 24.3394L62.6334 62.734M123.219 24.3394L147.543 94.0276M175.628 88.8995L147.425 165.423M175.628 88.8995L147.543 94.0276M147.425 165.423L66.041 179.484M147.425 165.423L147.543 94.0276M147.425 165.423L77.2448 149.084M66.041 179.484L77.2448 149.084M62.6334 62.734L147.543 94.0276M62.6334 62.734L77.2448 149.084M147.543 94.0276L77.2448 149.084" stroke="#9DA62A" stroke-width="2"/>
</svg>
