<svg width="164" height="158" viewBox="0 0 164 158" fill="none" xmlns="http://www.w3.org/2000/svg">
<path d="M1.29471 93.3581L29.4975 16.8343L110.22 1.33943L162.628 65.8995L134.425 142.423L53.0412 156.484L1.29471 93.3581Z" fill="#F2F2F2"/>
<path d="M1.29471 93.3581L29.4975 16.8343M1.29471 93.3581L53.0412 156.484M1.29471 93.3581L49.6336 39.734M1.29471 93.3581L64.2451 126.084M29.4975 16.8343L110.22 1.33943M29.4975 16.8343L49.6336 39.734M110.22 1.33943L162.628 65.8995M110.22 1.33943L49.6336 39.734M110.22 1.33943L134.544 71.0276M162.628 65.8995L134.425 142.423M162.628 65.8995L134.544 71.0276M134.425 142.423L53.0412 156.484M134.425 142.423L134.544 71.0276M134.425 142.423L64.2451 126.084M53.0412 156.484L64.2451 126.084M49.6336 39.734L134.544 71.0276M49.6336 39.734L64.2451 126.084M134.544 71.0276L64.2451 126.084" stroke="#9DA62A" stroke-width="2"/>
</svg>
